<svg id="drizzle" width="100" height="100" viewBox="0 0 100 100">
  <title>Cloud with drizzle</title>
  <path
    d="M 30 65 C 15 60 15 45 30 40 C 35 20 65 20 70 40 C 85 45 85 60 70 65 L 30 65"
    stroke="#111111"
    strokeWidth="3"
    fill="#EEEEEE"
  />
  <g id="eyes">
    <circle r="5" cx="40" cy="41" stroke="#111111" strokeWidth="3" fill="#EEEEEE" />
    <circle r="5" cx="60" cy="40" stroke="#111111" strokeWidth="3" fill="#EEEEEE" />
    <circle r="2" cx="39" cy="42" fill="#111111" />
    <circle r="2" cx="59" cy="41" fill="#111111" />
  </g>
  <path
    d="M 45 55 C 50 50 49 50 61 54"
    stroke="#111111"
    strokeWidth="3"
    fill="#EEEEEE"
  />
  <line x1="38" y1="72" x2="38" y2="75" stroke="rgba(0, 120, 215, 0.5)"/>
  <line x1="44" y1="74" x2="44" y2="77" stroke="rgba(0, 120, 215, 0.5)"/>
  <line x1="50" y1="72" x2="50" y2="75" stroke="rgba(0, 120, 215, 0.5)"/>
  <line x1="57" y1="70" x2="57" y2="73" stroke="rgba(0, 120, 215, 0.5)"/>
  <line x1="38" y1="77" x2="38" y2="80" stroke="rgba(0, 120, 215, 0.5)"/>
  <line x1="46" y1="79" x2="46" y2="82" stroke="rgba(0, 120, 215, 0.5)"/>
  <line x1="50" y1="77" x2="50" y2="80" stroke="rgba(0, 120, 215, 0.5)"/>
  <line x1="57" y1="75" x2="57" y2="78" stroke="rgba(0, 120, 215, 0.5)"/>
</svg>
