<svg id="heavyRain" width="100" height="100" viewBox="0 0 100 100">
  <path
    d="M 30 65 C 15 60 15 45 30 40 C 35 20 65 20 70 40 C 85 45 85 60 70 65 L 30 65"
    stroke="#111111"
    strokeWidth="3"
    fill="#EEEEEE"
  />
  <g id="eyes">
    <circle r="5" cx="40" cy="41" stroke="#111111" strokeWidth="3" fill="#EEEEEE" />
    <circle r="5" cx="60" cy="40" stroke="#111111" strokeWidth="3" fill="#EEEEEE" />
    <circle r="2" cx="39" cy="42" fill="#111111" />
    <circle r="2" cx="59" cy="41" fill="#111111" />
  </g>
  <path
    d="M 45 55 C 50 45 49 45 61 54"
    stroke="#111111"
    strokeWidth="3"
    fill="#EEEEEE"
  />
  <g id="rainDrops">
    <path
    d="M 45 67 C 37 77 37 85 45 86 C 53 85 53 77 45 67"
    stroke="rgba(0, 120, 215, 0.35)"
    strokeWidth="3"
    fill="rgba(238, 238, 238, 0.75)"
    />
    <path
    d="M 55 67 C 47 77 47 85 55 88 C 63 85 63 77 55 67"
    stroke="rgba(0, 120, 215, 0.35)"
    strokeWidth="3"
    fill="rgba(238, 238, 238, 0.75)"
    />
    <path
    d="M 65 67 C 57 77 57 85 65 90 C 73 85 73 77 65 67"
    stroke="rgba(0, 120, 215, 0.35)"
    strokeWidth="3"
    fill="rgba(238, 238, 238, 0.75)"
    />
  </g>
</svg>
