<svg id="lightSnow" width="100" height="100" viewBox="0 0 100 100">
  <path
    d="M 30 65 C 15 60 15 45 30 40 C 35 20 65 20 70 40 C 85 45 85 60 70 65 L 30 65"
    stroke="#111111"
    strokeWidth="3"
    fill="#EEEEEE"
  />
  <g id="eyes">
    <circle r="5" cx="40" cy="41" stroke="#111111" strokeWidth="3" fill="#EEEEEE" />
    <circle r="5" cx="60" cy="40" stroke="#111111" strokeWidth="3" fill="#EEEEEE" />
    <circle r="2" cx="39" cy="42" fill="#111111" />
    <circle r="2" cx="59" cy="41" fill="#111111" />
  </g>
  <path
    d="M 45 55 C 50 60 49 60 61 54"
    stroke="#111111"
    strokeWidth="3"
    fill="#EEEEEE"
  />
  <g id="snowflake">
    <line x1="45" y1="70" x2="45" y2="80" stroke="#FFFFFF" />
    <line x1="45" y1="70" x2="45" y2="80" stroke="#FFFFFF" transform="rotate(45, 45, 75)" />
    <line x1="45" y1="69" x2="45" y2="81" stroke="#FFFFFF" transform="rotate(135, 45, 75)" />
    <line x1="45" y1="70" x2="45" y2="80" stroke="#FFFFFF" transform="rotate(90, 45, 75)"/>
  </g>
</svg>
