<svg id="partlyCloudyNight" width="100" height="100" viewBox="0 0 100 100">
  <title>Cloud covering part of the Moon</title>
  <path d="M65 90 A 40 40 0 0 1 65 10 C50 15 50 85 65 90" stroke="#111111" fill="#FFEAA7" />
  <circle r="5" cx="45" cy="41" stroke="#111111" strokeWidth="3" fill="#EEEEEE" />
  <circle r="2" cx="46" cy="42" fill="#111111" />
  <path d="M 46 60 Q 46 65 54 65" stroke="#111111" strokeWidth="3" fill="#FFEAA7" />
  <g id="stars">
    <circle r="2" cx="93" cy="89" fill="#FFFFFF" />
    <circle r="2" cx="3" cy="4" fill="#FFFFFF" />
    <circle r="2" cx="85" cy="42" fill="#FFFFFF" />
    <circle r="2" cx="81" cy="14" fill="#FFFFFF" />
    <circle r="2" cx="30" cy="77" fill="#FFFFFF" />
    <circle r="2" cx="11" cy="63" fill="#FFFFFF" />
    <circle r="2" cx="67" cy="99" fill="#FFFFFF" />
    <circle r="2" cx="86" cy="5" fill="#FFFFFF" />
    <circle r="2" cx="25" cy="15" fill="#FFFFFF" />
  </g>
  <g id="cloud">
    <path
      d="M 35 90 C 20 85 20 70 35 65 C 40 45 70 45 75 65 C 90 70 90 85 75 90 L 35 90"
      stroke="#111111"
      strokeWidth="3"
      fill="#EEEEEE"
    />
    <g id="eyes">
      <circle r="5" cx="45" cy="66" stroke="#111111" strokeWidth="3" fill="#EEEEEE" />
      <circle r="5" cx="65" cy="65" stroke="#111111" strokeWidth="3" fill="#EEEEEE" />
      <circle r="2" cx="44" cy="65" fill="#111111" />
      <circle r="2" cx="64" cy="64" fill="#111111" />
    </g>
    <line x1="50" y1="80" x2="66" y2="79" stroke="#111111" strokeWidth="3" />
  </g>
</svg>
