<svg id="thunder" width="100" height="100" viewBox="0 0 100 100">
  <path
    d="M 30 65 C 15 60 15 45 30 40 C 35 20 65 20 70 40 C 85 45 85 60 70 65 L 30 65"
    stroke="#111111"
    strokeWidth="3"
    fill="#767676"
  />
  <g id="eyes">
    <circle r="5" cx="40" cy="41" stroke="#111111" strokeWidth="3" fill="#EEEEEE" />
    <circle r="5" cx="60" cy="40" stroke="#111111" strokeWidth="3" fill="#EEEEEE" />
    <circle r="2" cx="39" cy="42" fill="#111111" />
    <circle r="2" cx="59" cy="41" fill="#111111" />
  </g>
  <path
    d="M 45 55 C 50 45 49 45 61 54"
    stroke="#111111"
    strokeWidth="3"
    fill="#767676"
  />
  <g id="lightning">
    <path
      d="M 45 67 L 40 77 L 44 77 L 40 87"
      stroke="#FFFF00"
      strokeWidth="3"
    />
    <path
      d="M 55 67 L 50 77 L 54 77 L 50 87"
      stroke="#FFFF00"
      strokeWidth="3"
    />
    <path
      d="M 65 67 L 60 77 L 64 77 L 60 87"
      stroke="#FFFF00"
      strokeWidth="3"
    />
  </g>
</svg>
